<svg id="Layer_1" data-name="Layer 1" xmlns="http://www.w3.org/2000/svg" xmlns:xlink="http://www.w3.org/1999/xlink" viewBox="0 0 45.51 51.83"><defs><style>.cls-1{fill:none;}.cls-2{clip-path:url(#clip-path);}.cls-3{fill:#0069b4;}</style><clipPath id="clip-path" transform="translate(-4.83 -1.05)"><line class="cls-1" x1="-158.83" y1="197.75" x2="227.17" y2="197.75"/></clipPath></defs><title>icon gears</title><path class="cls-3" d="M30.24,18.73a8.7,8.7,0,1,1-8.7-8.7,8.7,8.7,0,0,1,8.7,8.7m5.29,0a14,14,0,0,0-.14-2L38.25,13a17.66,17.66,0,0,0-3-5.42L30.49,8a14,14,0,0,0-3.74-2.24L24.9,1.37a17.6,17.6,0,0,0-6.2-.09l-2,4.32a14,14,0,0,0-3.81,2.13L8.19,7.14A17.65,17.65,0,0,0,5,12.46l2.75,3.88a13.83,13.83,0,0,0-.07,4.36L4.83,24.5a17.64,17.64,0,0,0,3,5.42l4.73-.44a14,14,0,0,0,3.74,2.24l1.85,4.38a17.87,17.87,0,0,0,3.36.32,17.67,17.67,0,0,0,2.84-.23l2-4.32a14,14,0,0,0,3.81-2.13l4.72,0.58A17.67,17.67,0,0,0,38.07,25l-2.75-3.88a14,14,0,0,0,.21-2.38" transform="translate(-4.83 -1.05)"/><path class="cls-3" d="M45.55,42.31a5.2,5.2,0,1,1-5.2-5.2,5.2,5.2,0,0,1,5.2,5.2m3.16,0a8.37,8.37,0,0,0-.09-1.18l1.71-2.27a10.56,10.56,0,0,0-1.81-3.24l-2.83.26a8.38,8.38,0,0,0-2.24-1.34l-1.11-2.61a10.45,10.45,0,0,0-2-.19,10.58,10.58,0,0,0-1.7.14l-1.18,2.58a8.31,8.31,0,0,0-2.28,1.27l-2.82-.35a10.55,10.55,0,0,0-1.9,3.18l1.65,2.32A8.35,8.35,0,0,0,32,42.31a8.5,8.5,0,0,0,.08,1.18l-1.71,2.27A10.56,10.56,0,0,0,32.18,49L35,48.73a8.39,8.39,0,0,0,2.24,1.34l1.11,2.61a10.53,10.53,0,0,0,3.71.05l1.18-2.58a8.33,8.33,0,0,0,2.28-1.27l2.82,0.35a10.57,10.57,0,0,0,1.9-3.18l-1.65-2.32a8.35,8.35,0,0,0,.12-1.42" transform="translate(-4.83 -1.05)"/></svg>