<svg id="Layer_1" data-name="Layer 1" xmlns="http://www.w3.org/2000/svg" xmlns:xlink="http://www.w3.org/1999/xlink" viewBox="0 0 44.53 48"><defs><style>.cls-1{fill:none;}.cls-2{clip-path:url(#clip-path);}.cls-3{fill:#0069b4;}</style><clipPath id="clip-path" transform="translate(-4.9 -2.67)"><line class="cls-1" x1="-158.83" y1="197.75" x2="227.17" y2="197.75"/></clipPath></defs><title>icon man</title><path class="cls-3" d="M42.73,43.19c-3.21-2.28-8.12-1.07-11.18-5.13,0,0-1.14-1.28,1.43-4.42s2.78-8.12,2.14-12a8,8,0,0,0-8-6.41,8,8,0,0,0-8,6.41c-0.64,3.85-.43,8.83,2.14,12s1.42,4.42,1.42,4.42c-3.06,4.06-8,2.85-11.18,5.13S9,50.67,9,50.67H45.15s0.78-5.2-2.42-7.48" transform="translate(-4.9 -2.67)"/><path class="cls-3" d="M28.87,9a1.7,1.7,0,0,1-3.4,0V4.37a1.7,1.7,0,0,1,3.4,0V9Z" transform="translate(-4.9 -2.67)"/><path class="cls-3" d="M36.81,12.11a1.7,1.7,0,1,1-2.92-1.74l2.37-4a1.7,1.7,0,1,1,2.92,1.74Z" transform="translate(-4.9 -2.67)"/><path class="cls-3" d="M42,18.87a1.7,1.7,0,1,1-1.62-3l4.06-2.19a1.7,1.7,0,1,1,1.62,3Z" transform="translate(-4.9 -2.67)"/><path class="cls-3" d="M43,27.34a1.7,1.7,0,0,1,.15-3.4l4.61,0.2a1.7,1.7,0,1,1-.15,3.4Z" transform="translate(-4.9 -2.67)"/><path class="cls-3" d="M17.53,12.11a1.7,1.7,0,0,0,2.92-1.74l-2.37-4a1.7,1.7,0,0,0-2.92,1.74Z" transform="translate(-4.9 -2.67)"/><path class="cls-3" d="M12.31,18.87a1.7,1.7,0,0,0,1.61-3L9.86,13.68a1.7,1.7,0,1,0-1.61,3Z" transform="translate(-4.9 -2.67)"/><path class="cls-3" d="M11.29,27.34a1.7,1.7,0,0,0-.15-3.4l-4.61.2a1.7,1.7,0,1,0,.15,3.4Z" transform="translate(-4.9 -2.67)"/></svg>