<svg id="Layer_1" data-name="Layer 1" xmlns="http://www.w3.org/2000/svg" xmlns:xlink="http://www.w3.org/1999/xlink" viewBox="0 0 41.06 41.05"><defs><style>.cls-1{fill:none;}.cls-2{clip-path:url(#clip-path);}.cls-3{fill:#0069b4;}</style><clipPath id="clip-path" transform="translate(-7.05 -8.51)"><line class="cls-1" x1="-158.83" y1="197.75" x2="227.17" y2="197.75"/></clipPath></defs><title>icon corner</title><path class="cls-3" d="M45.89,12.51H44.12V10.84h1.78v1.66Zm2.22-1.66V8.51h-12v4H33.91v-4H31.18v4H29v-4H26.28v4H24.1v-4H21.37v4H19.19v-4H16.47v4H14.29v-4H11.57v4H9.39v-4H7.05v9.81H38.3V49.56h9.81V47.35h-4V45.17h4V42.45h-4V40.27h4V37.54h-4V35.36h4V32.64h-4V30.46h4V27.74h-4V25.56h4V22.83h-4V20.65h4V17.93h0V15.75h0V13h0V10.84h0Z" transform="translate(-7.05 -8.51)"/></svg>