<svg id="Layer_1" data-name="Layer 1" xmlns="http://www.w3.org/2000/svg" xmlns:xlink="http://www.w3.org/1999/xlink" viewBox="0 0 41.06 50.9"><defs><style>.cls-1{fill:none;}.cls-2{clip-path:url(#clip-path);}.cls-3{fill:#0069b4;}</style><clipPath id="clip-path" transform="translate(-9.09 -1.51)"><line class="cls-1" x1="-158.83" y1="197.75" x2="227.17" y2="197.75"/></clipPath></defs><title>icon folder</title><rect class="cls-3" x="12.29" y="39.16" width="12" height="11.74"/><rect class="cls-3" x="15.22" y="33.46" width="6.14" height="9.07"/><rect class="cls-3" x="27.24" y="41.96" width="9.07" height="6.14"/><rect class="cls-3" x="0.27" y="41.96" width="9.07" height="6.14"/><path class="cls-3" d="M11.4,31.9a0.89,0.89,0,0,1-.89-1.31l6.62-16.75a2.24,2.24,0,0,1,1.93-1.31H49.13a0.94,0.94,0,0,1,.94,1.33L44.24,30.57a2.13,2.13,0,0,1-1.87,1.33h-31Z" transform="translate(-9.09 -1.51)"/><path class="cls-3" d="M9.57,23.16c-0.27.73-.49,0.69-0.49-0.09V7.87a6.1,6.1,0,0,1,.72-2.62l1.5-2.53a2.74,2.74,0,0,1,2.12-1.21H25.7A3.54,3.54,0,0,1,28,2.57l1.3,1.49a3.54,3.54,0,0,0,2.34,1.06H43.72a0.9,0.9,0,0,1,.9,1.31L44.06,7.86a2.22,2.22,0,0,1-1.92,1.31h-26a2.17,2.17,0,0,0-1.89,1.32Z" transform="translate(-9.09 -1.51)"/></svg>